<?xml version="1.0" standalone="no"?>
<!DOCTYPE svg PUBLIC "-//W3C//DTD SVG 20010904//EN"
 "http://www.w3.org/TR/2001/REC-SVG-20010904/DTD/svg10.dtd">
<svg version="1.0" xmlns="http://www.w3.org/2000/svg"
 width="700.000000pt" height="700.000000pt" viewBox="0 0 700.000000 700.000000"
 preserveAspectRatio="xMidYMid meet">
<metadata>
Created by potrace 1.11, written by Peter Selinger 2001-2013
</metadata>
<g transform="translate(0.000000,700.000000) scale(0.100000,-0.100000)"
fill="#000000" stroke="none">
<path d="M120 6291 c-7 -14 -10 -780 -10 -2405 l0 -2385 22 -15 c20 -14 141
-16 1105 -16 l1083 0 1062 -281 c585 -154 1072 -281 1083 -281 32 0 2158 563
2183 578 l22 14 0 2393 c0 1848 -3 2396 -12 2405 -7 7 -23 12 -37 12 -28 0
-407 -97 -433 -111 -27 -15 -34 -56 -13 -79 28 -31 34 -30 338 55 l47 13 0
-2309 0 -2308 -38 -10 c-290 -75 -574 -150 -882 -231 -206 -55 -543 -144 -748
-198 l-372 -99 0 1110 0 1109 45 50 c65 73 58 132 -15 130 l-30 -1 0 1109 0
1108 28 7 c251 63 857 227 867 235 7 6 15 20 18 31 7 27 -36 72 -61 65 -9 -3
-217 -57 -462 -121 l-445 -116 -455 120 c-250 66 -662 174 -915 241 -253 67
-527 139 -609 161 l-148 39 -1104 0 c-1081 0 -1104 0 -1114 -19z m2140 -1926
c0 -1268 -3 -1835 -10 -1835 -6 0 -54 16 -106 36 -90 33 -97 34 -120 19 -16
-11 -24 -25 -24 -45 0 -39 28 -56 161 -101 l99 -34 0 -407 0 -408 -1020 0
-1020 0 0 2305 0 2305 1020 0 1020 0 0 -1835z m610 1691 c157 -41 560 -147
895 -236 336 -88 618 -163 628 -166 16 -5 17 -70 17 -1181 l0 -1175 -25 -30
c-33 -40 -33 -85 0 -100 l25 -11 0 -1065 c0 -935 -2 -1063 -15 -1058 -8 3
-459 123 -1002 266 -544 144 -996 263 -1005 266 -17 5 -18 124 -18 2314 l0
2308 108 -28 c59 -16 235 -62 392 -104z"/>
<path d="M1120 5883 c-312 -52 -565 -275 -662 -583 -20 -65 -23 -95 -23 -230
0 -134 3 -165 23 -230 95 -304 347 -527 659 -581 l63 -11 0 -37 c0 -42 24 -71
58 -71 30 0 51 26 58 70 l6 38 75 12 c95 15 162 38 265 91 66 34 104 64 184
144 90 89 106 111 152 205 64 130 82 196 89 330 21 402 -258 763 -652 845 -68
14 -234 18 -295 8z m246 -465 c25 -11 62 -41 84 -66 152 -173 30 -443 -199
-442 -151 1 -258 101 -269 251 -4 56 -1 75 20 120 67 146 222 204 364 137z"/>
<path d="M1184 4005 c-14 -21 -15 -42 -9 -142 8 -134 19 -163 65 -163 50 0 58
24 52 163 -5 139 -15 167 -62 167 -20 0 -35 -8 -46 -25z"/>
<path d="M1230 3575 c-16 -20 -8 -92 21 -194 27 -93 43 -113 83 -109 45 4 58
38 40 97 -8 25 -22 78 -31 116 -8 39 -22 78 -31 88 -19 21 -65 22 -82 2z"/>
<path d="M1382 3164 c-35 -25 -28 -62 34 -160 31 -49 63 -97 72 -107 24 -26
73 -19 91 14 14 26 13 30 -36 105 -27 44 -60 95 -72 116 -30 50 -52 58 -89 32z"/>
<path d="M1648 2818 c-9 -7 -19 -23 -23 -36 -6 -19 1 -31 37 -64 67 -62 169
-128 200 -128 33 0 60 35 52 67 -3 12 -31 38 -62 59 -32 21 -79 55 -105 76
-52 40 -73 46 -99 26z"/>
<path d="M4154 3018 c-52 -50 -96 -100 -100 -110 -3 -11 2 -30 10 -43 25 -37
59 -32 113 18 54 50 143 154 143 168 0 14 -47 59 -61 59 -6 0 -54 -41 -105
-92z"/>
<path d="M3328 2861 c-77 -25 -118 -52 -177 -116 -56 -62 -88 -136 -98 -226
-3 -32 -9 -59 -12 -59 -93 -7 -157 -21 -168 -36 -18 -24 -16 -49 4 -70 15 -14
30 -16 108 -11 l90 6 24 -45 c34 -64 129 -148 198 -175 45 -18 78 -23 148 -24
80 0 97 4 155 31 86 41 153 108 193 192 29 62 32 75 33 171 l0 104 72 49 c40
27 79 60 88 73 15 23 15 27 0 50 -25 37 -58 31 -138 -25 l-71 -50 -55 56 c-75
77 -156 115 -260 120 -57 3 -91 -1 -134 -15z"/>
<path d="M2437 2453 c-44 -49 -8 -87 96 -102 155 -22 217 -11 217 38 0 40 -25
55 -101 62 -41 3 -101 10 -134 14 -52 6 -62 5 -78 -12z"/>
<path d="M5777 6094 c-110 -29 -205 -58 -213 -65 -22 -18 -17 -66 9 -84 21
-13 39 -10 230 40 114 30 209 55 211 55 13 0 36 34 36 54 0 28 -29 56 -56 55
-10 -1 -108 -25 -217 -55z"/>
<path d="M5810 4569 c-112 -22 -226 -115 -278 -226 -20 -46 -27 -78 -30 -149
l-4 -90 -43 -12 c-24 -6 -50 -19 -59 -27 -24 -25 -20 -62 9 -81 24 -15 30 -15
82 0 54 15 58 15 67 -2 23 -41 110 -121 159 -145 29 -15 81 -32 116 -38 162
-29 338 65 414 220 29 61 32 74 32 166 0 93 -2 105 -33 167 -55 111 -157 191
-280 217 -60 12 -88 13 -152 0z"/>
<path d="M5119 3944 c-117 -71 -129 -81 -129 -114 0 -29 27 -60 52 -60 8 0 41
17 74 38 32 21 80 50 106 65 45 26 68 52 68 76 0 18 -38 51 -58 51 -11 0 -61
-25 -113 -56z"/>
<path d="M4762 3669 c-49 -44 -95 -91 -102 -103 -16 -30 -5 -64 26 -78 20 -9
30 -7 63 16 45 31 181 169 181 184 0 19 -42 62 -60 62 -11 0 -59 -36 -108 -81z"/>
</g>
</svg>
